<?xml version="1.0" encoding="iso-8859-1"?>
<!-- Generator: Adobe Illustrator 19.0.0, SVG Export Plug-In . SVG Version: 6.00 Build 0)  -->
<svg version="1.1" id="Layer_1" xmlns="http://www.w3.org/2000/svg" xmlns:xlink="http://www.w3.org/1999/xlink" x="0px" y="0px"
	 viewBox="0 0 480.02 480.02" style="enable-background:new 0 0 480.02 480.02;" xml:space="preserve">
<g transform="translate(0 -540.36)">
	<g>
		<g>
			<path d="M463.069,669.079L463.069,669.079c-2.3-3.2-6.2-4.7-10-3.9c-3,0.6-6.3,0.6-9.8,0.6c-40.9,0-74.1-33.1-74.1-73.9
				c0-12.9,3.3-25.2,9.7-36.6c1.9-3.3,1.7-7.4-0.5-10.6c-2.2-3.1-5.9-4.8-9.7-4.2c-22.5,3.4-43,14.6-57.8,31.6
				c-12.2,14.1-19.9,31.3-22.2,49.6c-13.5-5-28.2-7.7-43.4-7.7c-24.3,0-47.8,7-68.1,20.1c-17.7,11.5-32.2,27.2-42.3,45.8
				c-9.5-2.6-18.8-3.2-25.6-3.2c-25.1,0-48.7,9.6-66.5,27.1s-27.7,41-27.7,66c0,51.7,42.2,93.8,94.1,93.8h136
				c69.2,0,125.6-56.2,125.6-125.2c0-3.8-0.2-7.6-0.5-11.3c3.8,0.5,7.7,0.9,11.7,0.9c34.3,0,64.9-18,81.8-48.2
				C465.569,676.479,465.369,672.279,463.069,669.079z M245.069,843.68L245.069,843.68l-136,0c-40.9,0-74.1-33.1-74.1-73.8
				c0-40.3,33.2-73.1,74.1-73.1c10,0,19.5,1.7,26.8,4.7c5,2.1,10.7-0.2,12.9-5.1c17.2-37.9,55-62.3,96.2-62.3
				c58.2,0,105.6,46.8,105.6,104.4C350.669,796.48,303.269,843.68,245.069,843.68z M381.869,708.08L381.869,708.08
				c-5.2,0-10.5-0.8-15.5-1.8c-8.7-32.2-30.1-59.2-58.6-75.6c1.1-29.1,18.9-54.1,45-65.2c-2.5,8.5-3.8,17.3-3.8,26.4
				c0,49,37.8,89.3,85.9,93.5C421.269,699.88,402.369,708.08,381.869,708.08z"/>
			<path d="M143.669,899.079L143.669,899.079l-20.4,20.4c-3.9,3.9-3.9,10.2,0,14.1c2,2,4.5,2.9,7.1,2.9c2.6,0,5.1-1,7.1-2.9
				l20.4-20.4c3.9-3.9,3.9-10.2,0-14.1C153.969,895.179,147.569,895.179,143.669,899.079z"/>
			<path d="M312.069,898.979l-21.2,20.4c-4,3.8-4.1,10.2-0.3,14.1c2,2,4.6,3.1,7.2,3.1c2.5,0,5-0.9,6.9-2.8l21.2-20.4
				c4-3.8,4.1-10.2,0.3-14.1C322.369,895.279,316.069,895.079,312.069,898.979z"/>
			<path d="M395.269,899.079l-20.4,20.4c-3.9,3.9-3.9,10.2,0,14.1c2,2,4.5,2.9,7.1,2.9c2.6,0,5.1-1,7.1-2.9l20.4-20.4
				c3.9-3.9,3.9-10.2,0-14.1C405.469,895.179,399.169,895.179,395.269,899.079z"/>
			<path d="M60.469,898.979l-21.2,20.4c-4,3.8-4.1,10.2-0.3,14.1c2,2,4.6,3.1,7.2,3.1c2.5,0,5-0.9,6.9-2.8l21.2-20.4
				c4-3.8,4.1-10.2,0.3-14.1C70.769,895.279,64.469,895.079,60.469,898.979z"/>
			<path d="M290.669,971.979L290.669,971.979l-21.2,21.2c-3.9,3.9-3.9,10.2,0,14.1c2,2,4.5,2.9,7.1,2.9c2.6,0,5.1-1,7.1-2.9
				l21.2-21.2c3.9-3.9,3.9-10.2,0-14.1C300.969,968.079,294.569,968.079,290.669,971.979z"/>
			<path d="M374.769,971.979L374.769,971.979l-21.2,21.2c-3.9,3.9-3.9,10.2,0,14.1c2,2,4.5,2.9,7.1,2.9c2.6,0,5.1-1,7.1-2.9
				l21.2-21.2c3.9-3.9,3.9-10.2,0-14.1C385.069,968.079,378.669,968.079,374.769,971.979z"/>
			<path d="M123.269,971.979L123.269,971.979l-21.2,21.2c-3.9,3.9-3.9,10.2,0,14.1c2,2,4.5,2.9,7.1,2.9c2.6,0,5.1-1,7.1-2.9
				l21.2-21.2c3.9-3.9,3.9-10.2,0-14.1C133.469,968.079,127.169,968.079,123.269,971.979z"/>
			<path d="M243.469,937.78L243.469,937.78l-36.3,5.9l35.4-42.1c3.6-4.2,3-10.5-1.2-14.1s-10.5-3-14.1,1.2l-52.7,62.7
				c-2.7,3.2-3.1,7.7-1,11.4c2.1,3.6,6.2,5.6,10.3,4.9l36.6-5.9l-34.9,42.2c-3.5,4.3-2.9,10.6,1.3,14.1c1.9,1.5,4.1,2.3,6.4,2.3
				c2.9,0,5.7-1.2,7.7-3.6l51.9-62.7c2.7-3.2,3-7.7,1-11.3C251.669,939.08,247.569,937.18,243.469,937.78z"/>
			<path d="M39.169,971.979L39.169,971.979l-21.2,21.2c-3.9,3.9-3.9,10.2,0,14.1c2,2,4.5,2.9,7.1,2.9c2.6,0,5.1-1,7.1-2.9l21.2-21.2
				c3.9-3.9,3.9-10.2,0-14.1C49.369,968.079,43.069,968.079,39.169,971.979z"/>
		</g>
	</g>
</g>
<g>
</g>
<g>
</g>
<g>
</g>
<g>
</g>
<g>
</g>
<g>
</g>
<g>
</g>
<g>
</g>
<g>
</g>
<g>
</g>
<g>
</g>
<g>
</g>
<g>
</g>
<g>
</g>
<g>
</g>
</svg>
