<?xml version="1.0" encoding="iso-8859-1"?>
<!-- Generator: Adobe Illustrator 19.0.0, SVG Export Plug-In . SVG Version: 6.00 Build 0)  -->
<svg version="1.1" id="Layer_1" xmlns="http://www.w3.org/2000/svg" xmlns:xlink="http://www.w3.org/1999/xlink" x="0px" y="0px"
	 viewBox="0 0 488.025 488.025" style="enable-background:new 0 0 488.025 488.025;" xml:space="preserve">
<g transform="translate(0 -540.36)">
	<g>
		<g>
			<path d="M454.3,817.972l-30.1-30.4c-3.9-3.8-10.2-3.9-14.1-0.1l-20.3,19.7c-3.9,3.8-4,10.1-0.2,14.1c3.8,3.9,10.1,4,14.1,0.2
				l13.2-12.8l16.2,16.3l-20.2,20.4H132.2c-2.7,0-5.2,1.1-7.1,3l-30.9,31.2c-1.9,1.9-2.9,4.4-2.9,7.1c0,2.7,1.1,5.2,3,7.1l30.9,30.4
				c1.9,1.9,4.4,2.9,7,2.9h240l10.4,10.5l-13.4,13.5c-3.9,3.9-3.8,10.2,0.1,14.1c1.9,1.9,4.5,2.9,7,2.9l0,0c2.5,0,5.1-1,7.2-2.9
				l20.3-20.5c3.9-3.9,3.9-10.2,0-14.1l-20.3-20.5c-1.9-1.9-4.4-3-7.1-3H136.3l-20.8-20.5l20.9-21.1h280.7c2.7,0,5.2-1.1,7.1-3
				l30.1-30.4C458.2,828.172,458.2,821.872,454.3,817.972z"/>
			<path d="M485.1,879.573l-20.3-20.5c-3.8-4-10.2-4-14.1-0.1c-4,3.8-4,10.2-0.1,14.1l13.4,13.5l-13.4,13.5
				c-3.9,3.9-3.8,10.2,0.1,14.1c1.9,1.9,4.5,2.9,7,2.9s5.1-0.9,7.1-2.9l20.3-20.5C489,889.773,489,883.473,485.1,879.573z"/>
			<path d="M162.2,969.172H64.6l-20.9-21.1l16.7-16.4l13.3,13.5c3.8,4,10.2,4,14.1,0.1c4-3.8,4-10.2,0.1-14.1l-20.3-20.5
				c-3.9-3.9-10.2-4-14.1-0.1l-30.9,30.4c-1.9,1.9-3,4.4-3,7.1c0,2.7,1,5.2,2.9,7.1l30.9,31.2c1.9,1.9,4.4,3,7.1,3h101.7
				c5.5,0,10-4.7,10-10.2S167.7,969.172,162.2,969.172z"/>
			<path d="M132.1,814.473h0.1l111.4-0.8l111.5,0.8c5.4,0,9.9-4.3,10-9.9c0.5-21.5-4.9-42.7-15.5-61.4c-10.5-18.5-26-34.1-44.7-45.1
				c-38.4-22.4-84.1-22.4-122.4,0c-18.4,10.7-33.8,26.2-44.5,44.9c-10.8,18.9-16.3,40.3-15.9,61.7
				C122.2,810.073,126.7,814.473,132.1,814.473z M192.5,715.373c32-18.8,70.2-18.8,102.2,0c28.9,17,47.5,46.6,50.1,79l-101.2-0.7h0
				l-101.2,0.7C145.1,762.073,164,731.773,192.5,715.373z"/>
			<path d="M243.6,650.273c5.5,0,10-4.5,10-10v-50.9c0-5.5-4.5-10-10-10s-10,4.5-10,10v50.9
				C233.6,645.773,238.1,650.273,243.6,650.273z"/>
			<path d="M376.3,701.172c2.5,0,5.1-1,7.1-3l39.9-40.2c3.9-3.9,3.8-10.2-0.1-14.1c-3.9-3.9-10.2-3.8-14.1,0.1l-39.9,40.2
				c-3.9,3.9-3.8,10.2,0.1,14.1C371.2,700.172,373.8,701.172,376.3,701.172z"/>
			<path d="M103.8,698.172c2,2,4.5,3,7.1,3c2.6,0,5.1-1,7-2.9c4-3.8,4-10.2,0.1-14.1l-39.9-40.2c-3.8-4-10.2-4-14.1-0.1
				c-4,3.8-4,10.2-0.1,14.1L103.8,698.172z"/>
			<path d="M70.5,804.473c0-5.5-4.5-10-10-10H10c-5.5,0-10,4.5-10,10s4.5,10,10,10h50.5C66,814.473,70.5,809.973,70.5,804.473z"/>
		</g>
	</g>
</g>
<g>
</g>
<g>
</g>
<g>
</g>
<g>
</g>
<g>
</g>
<g>
</g>
<g>
</g>
<g>
</g>
<g>
</g>
<g>
</g>
<g>
</g>
<g>
</g>
<g>
</g>
<g>
</g>
<g>
</g>
</svg>
