<?xml version="1.0" encoding="iso-8859-1"?>
<!-- Generator: Adobe Illustrator 19.0.0, SVG Export Plug-In . SVG Version: 6.00 Build 0)  -->
<svg version="1.1" id="Layer_1" xmlns="http://www.w3.org/2000/svg" xmlns:xlink="http://www.w3.org/1999/xlink" x="0px" y="0px"
	 viewBox="0 0 488.025 488.025" style="enable-background:new 0 0 488.025 488.025;" xml:space="preserve">
<g transform="translate(0 -540.36)">
	<g>
		<g>
			<polygon points="375.7,1028.383 375.7,1028.383 375.7,1028.383 			"/>
			<path d="M457.3,886.783c0-2.7-1.1-5.3-3-7.2l-30.9-30.1c-3.9-3.7-10-3.7-13.9,0l-20.3,19.5c-4,3.8-4.1,10.1-0.3,14.1
				s10.1,4.1,14.1,0.3l13.3-12.8l16.6,16.2l-20.6,20.1H132c-2.7,0-5.3,1.1-7.2,3l-30.1,30.9c-3.8,3.9-3.8,10.1,0.1,14l30.1,30.1
				c1.9,1.8,4.4,2.9,7.1,2.9h239.6l10.3,10.3l-13.3,13.3c-3.9,3.9-3.9,10.2,0,14.1c2,1.9,4.5,2.9,7.1,2.9c2.6,0,5.1-1,7.2-2.9
				l20.3-20.3c3.9-3.9,3.9-10.2,0-14.1l-20.3-20.3c-1.9-1.8-4.4-2.9-7.1-2.9H136.2l-20.2-20.2l20.3-20.8h280.1c2.6,0,5.1-1,7-2.8
				l30.9-30.1C456.2,892.083,457.3,889.483,457.3,886.783z"/>
			<path d="M485.1,940.483l-20.3-20.3c-3.9-3.9-10.2-3.9-14.1,0c-3.9,3.9-3.9,10.2,0,14.1l13.3,13.3l-13.3,13.3
				c-3.9,3.9-3.9,10.2,0,14.1c2,1.9,4.5,2.9,7.1,2.9c2.5,0,5.1-0.9,7-3l20.3-20.3C489,950.683,489,944.383,485.1,940.483z"/>
			<path d="M142.5,885.983c5.6,0,10-4.5,10-10s-4.5-10-10-10H45l-20.7-20.2l16.7-16.7l13.2,13.3c3.9,3.9,10.2,3.9,14.1,0
				c3.9-3.9,3.9-10.2,0-14.1l-20.3-20.3c-1.9-1.8-4.4-2.9-7.1-2.9s-5.2,1-7.1,2.9l-30.9,30.9c-1.9,1.9-2.9,4.4-2.9,7.1
				c0,2.7,1.1,5.2,3,7.1l30.9,30.1c1.9,1.8,4.4,2.8,7,2.8L142.5,885.983L142.5,885.983z"/>
			<path d="M249.8,866.383L249.8,866.383l0.1,0c69.2-0.9,130.5-42,156.2-104.7c1.4-3.5,0.7-7.5-1.8-10.4c-2.6-2.9-6.5-4-10.2-3
				c-14.4,4-29,6.1-42,6.1c-81.8,0-148.4-65.6-148.4-146.3c0-17.7,3.6-35.9,10.7-54.1c1.4-3.6,0.7-7.6-1.9-10.4
				c-2.6-2.8-6.5-3.9-10.2-2.8c-34.7,10.2-64.7,30.9-86.7,59.8c-21.9,28.9-33.8,63.3-34.2,99.4v0.1
				C81.4,791.783,156.9,866.383,249.8,866.383z M101.3,700.183c0.8-57.7,36-110,87.8-133.3c-3.7,13.8-5.5,27.7-5.5,41.3
				c0,44.4,17.5,86.2,49.3,117.6s74.1,48.7,119.2,48.7c8.5,0,17.5-0.8,26.6-2.3c-26.2,44.9-74.8,73.5-129,74.2
				C167.9,846.383,101.3,780.783,101.3,700.183L101.3,700.183z"/>
			<path d="M250.3,580.483l12.2,6.1l-12.2,6.1c-4.9,2.5-6.9,8.5-4.5,13.4c1.8,3.5,5.3,5.5,8.9,5.5c1.5,0,3-0.3,4.5-1.1l15.6-7.8
				v19.2c0,5.5,4.5,10,10,10s10-4.5,10-10v-19.2l15.6,7.8c1.4,0.7,3,1.1,4.5,1.1c3.7,0,7.2-2,8.9-5.5c2.4-4.9,0.4-10.9-4.5-13.4
				l-12.2-6.1l12.2-6.1c4.9-2.5,6.9-8.5,4.5-13.4c-2.5-4.9-8.5-6.9-13.4-4.5l-15.6,7.8v-19.2c0-5.5-4.5-10-10-10s-10,4.5-10,10v19.2
				l-15.6-7.8c-4.9-2.5-10.9-0.5-13.4,4.5C243.3,571.983,245.3,577.983,250.3,580.483z"/>
			<path d="M316.4,658.283c-2.4,5-0.4,10.9,4.5,13.4l12.3,6.1l-12.3,6.1c-5,2.4-7,8.4-4.5,13.4c1.7,3.5,5.3,5.6,9,5.6
				c1.5,0,3-0.3,4.4-1l16-7.9v19.3c0,5.5,4.5,10,10,10s10-4.5,10-10v-19.3l16,7.9c1.4,0.7,2.9,1,4.4,1c3.7,0,7.2-2,9-5.6
				c2.5-5,0.5-11-4.5-13.4l-12.3-6.1l12.3-6.1c5-2.4,7-8.4,4.5-13.4c-2.4-5-8.4-7-13.4-4.5l-16,7.9v-19.3c0-5.5-4.5-10-10-10
				s-10,4.5-10,10v19.3l-16-7.9C324.8,651.383,318.9,653.383,316.4,658.283z"/>
		</g>
	</g>
</g>
<g>
</g>
<g>
</g>
<g>
</g>
<g>
</g>
<g>
</g>
<g>
</g>
<g>
</g>
<g>
</g>
<g>
</g>
<g>
</g>
<g>
</g>
<g>
</g>
<g>
</g>
<g>
</g>
<g>
</g>
</svg>
